<svg enable-background="new 0 0 110 106.5" viewBox="0 0 110 106.5" xmlns="http://www.w3.org/2000/svg" xmlns:xlink="http://www.w3.org/1999/xlink"><linearGradient id="a"><stop offset="0" stop-color="#2ac4f3"/><stop offset=".5" stop-color="#00b2e2"/><stop offset="1" stop-color="#0095da"/></linearGradient><linearGradient id="b" gradientTransform="matrix(1 0 0 -1 0 178.5)" gradientUnits="userSpaceOnUse" x1="47.694" x2="17.319" xlink:href="#a" y1="177.7014" y2="100.7515"/><linearGradient id="c" gradientTransform="matrix(1 0 0 -1 0 178.5)" gradientUnits="userSpaceOnUse" x1="64.7997" x2="34.4247" xlink:href="#a" y1="170.9493" y2="93.9992"/><linearGradient id="d" gradientTransform="matrix(1 0 0 -1 0 178.5)" gradientUnits="userSpaceOnUse" x1="90.1896" x2="59.8146" xlink:href="#a" y1="160.9269" y2="83.9769"/><linearGradient id="e" gradientTransform="matrix(1 0 0 -1 0 178.5)" gradientUnits="userSpaceOnUse" x1="77.3593" x2="46.9843" xlink:href="#a" y1="165.9915" y2="89.0415"/><linearGradient id="f" gradientTransform="matrix(1 0 0 -1 0 178.5)" gradientUnits="userSpaceOnUse" x1="80.5006" x2="50.1256" xlink:href="#a" y1="164.7515" y2="87.8014"/><g fill="#e6e7e8"><path d="m32.7 70.2c-.4-5.6 1.4-13.2 4.2-21.1-5.1 2.5-9.7 5.3-13.7 8.3-4.9 13.9 0 30 12 38.7 1.5 1.1 3.1 2.1 4.8 2.9 4.8 2.4 10 3.5 15.1 3.5-.1-.1-21-13.2-22.4-32.3z"/><path d="m43.1 33.5c6.2-13.9 12.8-25.5 12.8-25.5l-.9-1.4c-5.6 8.6-11.3 17.2-16.9 25.7z"/><path d="m35 37.2c-2.5 3.9-5 7.7-7.4 11.6l11.7-6.2c.6-1.4 1.1-2.9 1.7-4.3-2-.5-4.1-.8-6-1.1z"/></g><path d="m36.8 37.5c-1.1-.2-2.2-.4-3.2-.5-.2 0-.3 0-.5-.1-2.8 4.4-5.6 8.7-8.3 13.1-.1.1-.1.2-.2.3l6-3.2c2.1-3.1 4.1-6.4 6.2-9.6z" fill="url(#b)"/><path d="m39.9 32.7c2.3-3.5 4.6-7 6.9-10.5 2.7-4.1 5.5-8.3 8.2-12.6 2.7 4.2 5.5 8.4 8.2 12.5 2.4 3.7 4.8 7.4 7.2 11.1l3.6-.8c-2.7-4.1-5.3-8.2-7.9-12.2-3.1-4.8-6.3-9.7-9.5-14.6l-1.6-2.2-1.4 2.2c-3.2 4.9-6.5 9.9-9.7 14.7-2.6 3.9-5.2 7.9-7.8 11.9h2z" fill="url(#c)"/><path d="m79.6 47.5 6.5 4c-.3-.5-.5-.9-.8-1.4-2.8-4.4-5.6-8.8-8.5-13.2-.5.1-1.1.1-1.6.2-.7.1-1.4.2-2.1.3 2.1 3.3 4.3 6.6 6.5 10.1z" fill="url(#d)"/><path d="m89.4 59.8c-1.5-1.2-3.1-2.3-4.8-3.5 3.6 8.5 3.4 18.4-.8 26.8-2.3 4.6-5.8 8.7-10.1 11.7-5.4 3.8-12.1 6-18.7 6-5 0-9.8-1.1-14.3-3.3-1.6-.8-3.1-1.7-4.5-2.7-6.4-4.7-10.9-11.7-12.5-19.7-1.4-6.7-.6-13.4 2.1-19.5-1.7 1.2-3.4 2.4-4.9 3.7-1.4 5.3-1.6 10.9-.5 16.4 1.8 8.8 6.7 16.6 13.8 21.8 1.6 1.1 3.3 2.2 5 3 4.8 2.4 10.1 3.6 15.5 3.6h.3c7.3-.1 14.7-2.4 20.7-6.7 4.7-3.3 8.6-7.8 11.1-12.9 3.9-7.7 4.7-16.6 2.6-24.7z" fill="url(#e)"/><path d="m38.1 78.3s5.1 9.2 16.9 9.2c11.2 0 16.9-9.2 16.9-9.2-18.6 12.1-33.8 0-33.8 0z" fill="url(#f)"/><path d="m7.5 72.2c-.8 3.8.3 5.8.9 6.9 1.7 2.9 4.8 4.7 9.2 5.3h.1s.8.2 2 .2c.5 1.2 1.1 2.3 1.7 3.4-.3 0-.6 0-.9 0-1.8 0-3.2-.2-3.4-.3-5.5-.8-9.5-3.2-11.7-7-1.1-1.9-2.3-5.6-1.1-10.2.1.2 1.5 1.2 3.2 1.7z" fill="#404041"/><path d="m49.2 40.2c-1.9-.6-3.8-1.1-5.6-1.5-1.3.5-2.6 1-3.9 1.6-10.8 4.5-19.9 10.3-26.3 16.6-.9-.5-1.9-.8-3-.8-3.6 0-6.5 2.9-6.5 6.5s2.9 6.5 6.5 6.5 6.5-2.9 6.5-6.5c0-1.2-.4-2.4-1-3.4 6.1-5.9 15-11.6 25.2-15.9 2.6-1 5.4-2.1 8.1-3.1zm-38.9 26c-1.9 0-3.5-1.6-3.5-3.5s1.6-3.5 3.5-3.5 3.5 1.6 3.5 3.5c0 2-1.6 3.5-3.5 3.5z" fill="#404041"/><path d="m60.2 36.8c4.9-1.3 9.5-2.3 13.7-2.9 10.1-1.4 14.8.1 15.8 2 .9 1.7-.2 5.2-3.1 9.4l2.8 1.9c3.8-5.5 4.9-9.9 3.3-12.9-3.6-6.8-20.4-5-38.3.5" fill="#404041"/><path d="m54.5 35c-17.8-5.5-34.6-7.3-38.3-.5-1.6 3-.5 7.4 3.3 12.9l2.8-1.9c-2.9-4.2-4.1-7.6-3.1-9.4 1-1.9 5.7-3.4 15.8-2.1 9.5 1.2 21.2 4.6 33 9.6 16.9 7.1 29.8 17.7 33 27.2 1.1 3.2.9 6.1-.4 8.5-1.7 2.9-4.8 4.7-9.3 5.3 0 0-.3 0-.8.1-.2.6-.5 1.1-.8 1.6-.3.6-.6 1.2-1 1.9 1.8 0 3-.2 3.1-.2.7-.1 1.3-.2 2-.4.6-.1 1.3-.3 1.8-.5l.9-.3c3.1-1.2 5.5-3.2 7-5.8 1.9-3.2 2.1-7.1.7-11.3-3.5-10.5-16.9-21.7-34.9-29.2-3-1.3-6.1-2.5-9.2-3.5z" fill="#4b4a4b"/><path d="m32 23.5c-.7 0-1.4-.3-1.9-.8s-.8-1.2-.8-1.9.3-1.4.8-1.9 1.2-.8 1.9-.8 1.4.3 1.9.8.8 1.2.8 1.9-.3 1.4-.8 1.9-1.2.8-1.9.8z" fill="#4b4a4b"/><path d="m99.9 51.2c-.7 0-1.4-.3-1.9-.8s-.8-1.2-.8-1.9.3-1.4.8-1.9 1.2-.8 1.9-.8 1.4.3 1.9.8.8 1.2.8 1.9-.3 1.4-.8 1.9c-.5.6-1.1.8-1.9.8z" fill="#404041"/></svg>